# xmcd
#
# Track frame offsets: 
#        150
#        17267
#        39617
#        58479
#        75243
#        90468
#        105858
#        119317
#        131626
#        148147
#        165791
#        183314
#        200649
#        218201
#        234768
#        256609
#        271277
#        292671
#
# Disc length: 4052 seconds
#
# Revision: 0
# Processed by: cddbd v1.5.2PL0 Copyright (c) Steve Scherf et al.
# Submitted via: ExactAudioCopyFreeDBPlugin 1.0
#
DISCID=e30fd212
DTITLE=แสงสุรีย์ รุ่งโรจน์ - แห่ขันหมาก [RE.14]
DYEAR=2006
DGENRE=Country
TTITLE0=แห่ขันหมาก
TTITLE1=ขอยืมเงินบวช
TTITLE2=น้ำตานาค
TTITLE3=ความจริงจากใจ
TTITLE4=สะดุ้งกลางดึก
TTITLE5=จับตัวตีตราจอง
TTITLE6=ดาวเคียงเดือน
TTITLE7=รักสาวชาวนา
TTITLE8=รำวงชาวบ้าน
TTITLE9=น่าอร่อย
TTITLE10=ม่วยแก้มแดง
TTITLE11=สารภาพรัก
TTITLE12=รอความเมตตา
TTITLE13=เรือนหอรอเก้อ
TTITLE14=ตังเกปวดใจ
TTITLE15=หนุ่มสลัม
TTITLE16=แพ้เพื่อน
TTITLE17=ขอเวลาห้าปี
EXTD=
EXTT0=
EXTT1=
EXTT2=
EXTT3=
EXTT4=
EXTT5=
EXTT6=
EXTT7=
EXTT8=
EXTT9=
EXTT10=
EXTT11=
EXTT12=
EXTT13=
EXTT14=
EXTT15=
EXTT16=
EXTT17=
PLAYORDER=
